# AST/ASF file generated using VICON BodyLanguage
# -----------------------------------------------
:version 1.10
:name VICON
:units
  mass 1.0
  length 0.45
  angle deg
:documentation
   .ast/.asf automatically generated from VICON data using
   VICON BodyBuilder and BodyLanguage model FoxedUp or BRILLIANT.MOD
:root
   order TX TY TZ RX RY RZ
   axis XYZ
   position 0 0 0  
   orientation 0 0 0 
:bonedata
  begin
     id 1 
     name lhipjoint
     direction 0.625129 -0.738222 0.253461 
     length 2.5165 
     axis 0 0 0  XYZ
  end
  begin
     id 2 
     name lfemur
     direction 0.34202 -0.939693 0  
     length 7.54288  
     axis 0 0 20  XYZ
    dof rx ry rz
    limits (-160.0 20.0)
           (-70.0 70.0)
           (-60.0 70.0)
  end
  begin
     id 3 
     name ltibia
     direction 0.34202 -0.939693 0   
     length 7.71864   
     axis 0 0 20   XYZ
    dof rx
    limits (-10.0 170.0)
  end
  begin
     id 4 
     name lfoot
     direction 0.0772037 -0.212115 0.97419   
     length 2.18429   
     axis -90 7.62852e-016 20   XYZ
    dof rx rz
    limits (-45.0 90.0)
           (-70.0 20.0)
  end
  begin
     id 5 
     name ltoes
     direction 1.53513e-011 -4.21834e-011 1   
     length 1.09718   
     axis -90 7.62852e-016 20   XYZ
    dof rx
    limits (-90.0 20.0)
  end
  begin
     id 6 
     name rhipjoint
     direction -0.621946 -0.740623 0.254285   
     length 2.50835  
     axis 0 0 0  XYZ 
  end
  begin
     id 7 
     name rfemur
     direction -0.34202 -0.939693 0   
     length 7.43366   
     axis 0 0 -20   XYZ
    dof rx ry rz
    limits (-160.0 20.0)
           (-70.0 70.0)
           (-70.0 60.0)
  end
  begin
     id 8 
     name rtibia
     direction -0.34202 -0.939693 0   
     length 7.77122   
     axis 0 0 -20   XYZ
    dof rx
    limits (-10.0 170.0)
 end
 begin
     id 9 
     name rfoot
     direction -0.082694 -0.2272 0.970331   
     length 2.2293  
     axis -90 -7.62852e-016 -20   XYZ
    dof rx rz
    limits (-45.0 90.0)
           (-20.0 70.0)
  end
  begin
     id 10 
     name rtoes
     direction -1.53565e-011 -4.21695e-011 1   
     length 1.1178   
     axis -90 -7.62852e-016 -20   XYZ
    dof rx
    limits (-90.0 20.0)
  end
  begin
     id 11 
     name lowerback
     direction -0.000695208 0.988391 -0.151929   
     length 1.95077   
     axis 0 0 0   XYZ
    dof rx ry rz
    limits (-20.0 45.0)
           (-30.0 30.0)
           (-30.0 30.0)
  end
  begin
     id 12 
     name upperback
     direction -0.00268925 0.999885 -0.0149203   
     length 1.96246   
     axis 0 0 0   XYZ
    dof rx ry rz
    limits (-20.0 45.0)
           (-30.0 30.0)
           (-30.0 30.0)
  end
  begin
     id 13 
     name thorax
     direction -0.000848408 0.998481 0.0550912   
     length 2.00867   
     axis 0 0 0   XYZ
    dof rx ry rz
    limits (-20.0 45.0)
           (-30.0 30.0)
           (-30.0 30.0)
  end
  begin
     id 14 
     name lowerneck
     direction -0.00577709 0.998999 0.0443608   
     length 1.75762   
     axis 0 0 0   XYZ
    dof rx ry rz
    limits (-20.0 45.0)
           (-30.0 30.0)
           (-30.0 30.0)
  end
  begin
     id 15 
     name upperneck
     direction 0.0320945 0.999136 0.0264105   
     length 1.72601   
     axis 0 0 0   XYZ
    dof rx ry rz
    limits (-20.0 45.0)
           (-30.0 30.0)
           (-30.0 30.0)
  end
  begin
     id 16
     name head
     direction 0.0120552 0.999916 0.00480151  
     length 1.79973  
     axis 0 0 0   XYZ
    dof rx ry rz
    limits (-20.0 45.0)
           (-30.0 30.0)
           (-30.0 30.0)
  end
  begin
     id 17 
     name lclavicle
     direction 0.909 0.371533 -0.188897  
     length 3.47956  
     axis 0 0 0   XYZ
    dof ry rz
    limits (-20.0 10.0)
           (0.0 20.0)
  end
  begin
     id 18 
     name lhumerus
     direction 1 -4.48963e-011 -6.48352e-028   
     length 5.52302   
     axis 180 -30 -90   XYZ
    dof rx ry rz
    limits (-60.0 90.0)
           (-90.0 90.0)
           (-90.0 90.0)
  end
  begin
     id 19
     name lradius
     direction 1 -4.48968e-011 -4.78536e-027   
     length 3.58675   
     axis 180 -30 -90   XYZ
    dof rx
    limits (-10.0 170.0)
  end
  begin
     id 20
     name lwrist
     direction 1 -4.48942e-011 -9.9435e-027   
     length 1.79337   
     axis 8.54312e-015 90 90   XYZ
    dof ry
    limits (-180.0 0.0)
 end
  begin
     id 21 
     name lhand
     direction 1 -4.4904e-011 -1.9887e-026   
     length 0.536412   
     axis 1.26896e-014 90 90   XYZ
    dof rx rz
    limits (-90.0 90.0)
           (-45.0 45.0)
  end
  begin
     id 22 
     name lfingers
     direction 1 -4.48893e-011 -3.9774e-026   
     length 0.432469   
     axis 2.53792e-014 90 90   XYZ
    dof rx
    limits (0.0 90.0)
  end
  begin
     id 23
     name lthumb
     direction 0.707107 -6.34934e-011 0.707107   
     length 0.620942   
     axis -90 45 2.85299e-015   XYZ
    dof rx rz
    limits (-45.0 45.0)
           (-45.0 45.0)
  end
  begin
     id 24 
     name rclavicle
     direction -0.89595 0.416672 -0.153813   
     length 3.44099  
     axis 0 0 0   XYZ 
    dof ry rz
    limits (-10.0 20.0)
           (-20.0 0.0)
  end
  begin
     id 25 
     name rhumerus
     direction -1 -4.48952e-011 5.57804e-028  
     length 5.8478   
     axis 180 30 90   XYZ
    dof rx ry rz
    limits (-90.0 60.0)
           (-90.0 90.0)
           (-90.0 90.0)
  end
  begin
     id 26 
     name rradius
     direction -1 -4.48967e-011 -7.93646e-027   
     length 3.62717   
     axis 180 30 90   XYZ
    dof rx
    limits (-10.0 170.0)
  end
  begin
     id 27 
     name rwrist
     direction -1 -4.49008e-011 -9.9435e-027   
     length 1.81359   
     axis 8.54312e-015 -90 -90   XYZ
    dof ry
    limits (-180.0 0.0)
  end
  begin
     id 28
     name rhand
     direction -1 -4.48812e-011 -1.9887e-026   
     length 0.650516   
     axis 1.26896e-014 -90 -90   XYZ
    dof rx rz
    limits (-90.0 90.0)
           (-45.0 45.0)
  end
  begin
     id 29
     name rfingers
     direction -1 -4.49228e-011 -3.9774e-026   
     length 0.524463   
     axis 2.53792e-014 -90 -90   XYZ
    dof rx
    limits (0.0 90.0)
  end
  begin
     id 30
     name rthumb
     direction -0.707107 -6.34912e-011 0.707107   
     length 0.753027   
     axis -90 -45 -2.85299e-015   XYZ
    dof rx rz
    limits (-45.0 45.0)
           (-45.0 45.0)
  end
:hierarchy
  begin
    root lhipjoint rhipjoint lowerback
    lhipjoint lfemur
    lfemur ltibia
    ltibia lfoot
    lfoot ltoes
    rhipjoint rfemur
    rfemur rtibia
    rtibia rfoot
    rfoot rtoes
    lowerback upperback
    upperback thorax
    thorax lowerneck lclavicle rclavicle
    lowerneck upperneck
    upperneck head
    lclavicle lhumerus
    lhumerus lradius
    lradius lwrist
    lwrist lhand lthumb
    lhand lfingers
    rclavicle rhumerus
    rhumerus rradius
    rradius rwrist
    rwrist rhand rthumb
    rhand rfingers
  end

#!OML:ASF F:\VICON\USERDATA\INSTALL\rory3\rory3.ASF
:FULLY-SPECIFIED
:DEGREES
660
root 13.8516 18.0978 32.3172 -175.808 2.88822 -181.265
lowerback 9.53645 -1.20084 -2.57519
upperback 1.60657 -1.7555 -1.81629
thorax -3.6522 -0.772154 -0.221608
lowerneck -2.86183 -1.32503 0.715006
upperneck 16.9615 -1.15938 1.03047
head 5.58094 -0.10368 0.172543
rclavicle 2.51463e-014 2.62396e-014
rhumerus -31.5711 -5.08989 -82.4422
rradius 31.6274
rwrist 16.1423
rhand -16.9529 15.4413
rfingers 7.12502
rthumb 9.28082 -14.3344
lclavicle 2.51463e-014 2.62396e-014
lhumerus -21.0699 2.97953 85.3208
lradius 12.9671
lwrist 15.0187
lhand -38.1632 38.4208
lfingers 7.12502
lthumb -11.1967 68.102
rfemur -22.6891 3.0364 17.1089
rtibia 64.447
rfoot -0.458138 -9.23366
rtoes 3.12208
lfemur -9.73443 -3.79936 -27.2477
ltibia 20.7537
lfoot -10.0333 5.65251
ltoes -11.7608
661
root 13.8471 18.1226 32.1625 -175.89 2.87514 -181.363
lowerback 9.80136 -1.17568 -2.6726
upperback 1.5697 -1.74138 -1.77453
thorax -3.83359 -0.761067 -0.119792
lowerneck -3.09951 -1.38954 0.735469
upperneck 16.9111 -1.25928 0.922669
head 5.60528 -0.167279 0.12799
rclavicle 2.78299e-015 -7.95139e-016
rhumerus -31.7274 -5.33021 -82.2671
rradius 31.1667
rwrist 15.1958
rhand -18.9293 19.3415
rfingers 7.12502
rthumb 7.37341 -10.51
lclavicle 2.78299e-015 -7.95139e-016
lhumerus -20.8989 3.36344 85.3551
lradius 13.6575
lwrist 12.8981
lhand -40.833 30.3481
lfingers 7.12502
lthumb -13.7707 59.8723
rfemur -23.3792 3.1802 16.9368
rtibia 63.7776
rfoot -0.918788 -9.70538
rtoes -3.64011
lfemur -10.045 -3.78651 -27.3955
ltibia 21.508
lfoot -10.0295 5.62638
ltoes -10.169
662
root 13.8449 18.1092 32.0144 -175.981 2.94545 -181.417
lowerback 10.1069 -1.11313 -2.76048
upperback 1.4686 -1.68469 -1.72019
thorax -4.1055 -0.729151 -0.0144235
lowerneck -3.16511 -1.44715 0.654874
upperneck 16.9444 -1.34815 1.02121
head 5.6284 -0.208324 0.166925
rclavicle 2.5842e-015 1.66979e-014
rhumerus -31.9453 -5.43153 -82.1855
rradius 31.1756
rwrist 15.3987
rhand -19.2983 18.2606
rfingers 7.12502
rthumb 7.01725 -11.6031
lclavicle 2.5842e-015 1.66979e-014
lhumerus -20.7148 3.70346 85.3362
lradius 14.0983
lwrist 10.6506
lhand -41.7338 25.544
lfingers 7.12502
lthumb -14.6387 55.0073
rfemur -24.2089 3.58201 16.8249
rtibia 63.1033
rfoot -2.34138 -10.4711
rtoes -8.12499
lfemur -9.87661 -3.68766 -27.5591
ltibia 22.1635
lfoot -10.4606 5.78696
ltoes -10.6709
663
root 13.8469 18.0785 31.8682 -176.093 2.83038 -181.613
lowerback 10.2732 -1.18391 -2.98848
upperback 1.44155 -1.80889 -1.71926
thorax -4.21647 -0.784156 0.13454
lowerneck -3.26693 -1.39159 0.572346
upperneck 16.9419 -1.29143 1.13757
head 5.64639 -0.180302 0.219733
rclavicle -1.0635e-014 -3.69739e-014
rhumerus -32.0338 -5.52673 -82.197
rradius 31.0498
rwrist 15.2624
rhand -19.2066 17.8131
rfingers 7.12502
rthumb 7.10569 -12.0476
lclavicle -1.0635e-014 -3.69739e-014
lhumerus -20.3363 4.20386 85.1627
lradius 14.3154
lwrist 9.13296
lhand -39.2927 27.5911
lfingers 7.12502
lthumb -12.2858 57.2102
rfemur -25.0077 3.85856 16.5923
rtibia 62.3428
rfoot -3.81987 -11.1528
rtoes -9.02681
lfemur -9.43029 -3.76293 -27.8792
ltibia 22.784
lfoot -11.1731 5.99404
ltoes -10.9178
664
root 13.8495 18.055 31.7217 -176.131 2.52897 -181.683
lowerback 10.3054 -1.3383 -3.02836
upperback 1.4567 -2.01723 -1.69308
thorax -4.21135 -0.886067 0.212784
lowerneck -3.43647 -1.27437 0.76574
upperneck 16.7725 -1.14894 0.939516
head 5.61967 -0.125548 0.131949
rclavicle 2.48481e-015 3.18055e-015
rhumerus -32.0133 -5.73121 -82.1786
rradius 30.9677
rwrist 15.0884
rhand -18.7945 17.5982
rfingers 7.12502
rthumb 7.50354 -12.2487
lclavicle 2.48481e-015 3.18055e-015
lhumerus -20.0322 4.77154 85.0668
lradius 14.8358
lwrist 8.01061
lhand -36.0387 31.1976
lfingers 7.12502
lthumb -9.14715 60.9792
rfemur -25.769 3.98818 16.517
rtibia 61.4464
rfoot -4.82941 -11.7895
rtoes -8.30297
lfemur -8.99311 -4.01621 -28.0299
ltibia 23.227
lfoot -11.8177 6.13998
ltoes -11.1111
665
root 13.8519 18.0346 31.5779 -176.098 2.39649 -181.748
lowerback 10.3241 -1.43536 -3.09584
upperback 1.36274 -2.16283 -1.63402
thorax -4.31167 -0.957742 0.33362
lowerneck -3.09811 -1.1494 0.735204
upperneck 16.4159 -0.971884 0.864466
head 5.44999 -0.0562827 0.123841
rclavicle 4.07509e-015 7.55382e-015
rhumerus -32.1491 -5.54044 -82.1586
rradius 30.9428
rwrist 14.7695
rhand -18.3527 17.0856
rfingers 7.12502
rthumb 7.92994 -12.7457
lclavicle 4.07509e-015 7.55382e-015
lhumerus -20.071 5.38382 84.9997
lradius 15.6239
lwrist 6.86188
lhand -34.697 30.821
lfingers 7.12502
lthumb -7.8523 60.6552
rfemur -26.5856 4.41247 16.4029
rtibia 60.3982
rfoot -5.93786 -12.5164
rtoes -6.28752
lfemur -8.6477 -4.12379 -28.1544
ltibia 23.3518
lfoot -12.1737 6.21189
ltoes -10.5749
666
root 13.8548 18.0172 31.4322 -176.147 2.21591 -181.994
lowerback 10.3927 -1.5598 -3.35528
upperback 1.312 -2.36184 -1.61038
thorax -4.38578 -1.05021 0.533205
lowerneck -2.64656 -1.05398 0.490154
upperneck 16.0375 -0.839621 0.971255
head 5.25682 -0.00767393 0.20528
rclavicle 1.88845e-015 -3.65764e-014
rhumerus -32.3396 -5.20471 -82.1962
rradius 30.8827
rwrist 14.48
rhand -18.571 17.5958
rfingers 7.12502
rthumb 7.7192 -12.2433
lclavicle 1.88845e-015 -3.65764e-014
lhumerus -20.0995 6.03939 84.881
lradius 16.6275
lwrist 5.91963
lhand -33.5889 30.5753
lfingers 7.12502
lthumb -6.78275 60.4467
rfemur -27.1989 4.76035 16.0672
rtibia 59.1311
rfoot -7.26928 -13.3291
rtoes -5.16034
lfemur -7.96032 -4.28702 -28.5341
ltibia 23.2343
lfoot -12.5507 6.44573
ltoes -10.1582
667
root 13.8559 18.0036 31.2857 -176.176 2.0699 -182.277
lowerback 10.2792 -1.66083 -3.49654
upperback 1.4473 -2.49292 -1.7182
thorax -4.17545 -1.1123 0.51175
lowerneck -2.92461 -1.02655 0.433048
upperneck 15.9469 -0.843499 1.07657
head 5.27692 -0.0172666 0.245657
rclavicle 8.54774e-015 2.38542e-015
rhumerus -32.2107 -5.17922 -82.3733
rradius 30.7302
rwrist 14.2223
rhand -18.9166 18.3154
rfingers 7.12502
rthumb 7.38568 -11.5357
lclavicle 8.54774e-015 2.38542e-015
lhumerus -19.8144 6.5091 84.671
lradius 17.8131
lwrist 5.1089
lhand -32.5015 30.1262
lfingers 7.12502
lthumb -5.73295 60.0287
rfemur -27.7845 4.91478 15.6513
rtibia 57.6391
rfoot -8.39309 -13.7131
rtoes -4.35942
lfemur -6.99652 -4.42847 -29.001
ltibia 23.1578
lfoot -13.2825 6.72609
ltoes -8.89661
